<svg width="32" height="32" viewBox="0 0 32 32" fill="none" xmlns="http://www.w3.org/2000/svg">
<path d="M16.286 23.6322C16.2781 24.6407 15.4542 25.4517 14.4458 25.4438C13.4374 25.436 12.6263 24.6121 12.6342 23.6037L12.7526 8.46328C12.7605 7.45488 13.5843 6.6438 14.5927 6.65168C15.6012 6.65956 16.4122 7.48343 16.4044 8.49183L16.286 23.6322Z" fill="#161616"/>
<path d="M8.85181 30.1883C8.84393 31.1967 8.02006 32.0078 7.01166 31.9999C6.00326 31.9921 5.19217 31.1682 5.20006 30.1598L5.4217 1.81166C5.42958 0.803254 6.25345 -0.00782719 7.26185 5.69954e-05C8.27025 0.00794118 9.08134 0.831806 9.07345 1.84021L8.85181 30.1883Z" fill="#161616"/>
<path d="M21.7931 14.3357C22.8255 13.1814 24.5982 13.0826 25.7525 14.115C26.9069 15.1474 27.0057 16.9201 25.9732 18.0744C24.9408 19.2288 23.1681 19.3276 22.0138 18.2952C20.8594 17.2627 20.7606 15.49 21.7931 14.3357Z" fill="#161616"/>
</svg>
