<svg width="448" height="245" viewBox="0 0 448 245" fill="none" xmlns="http://www.w3.org/2000/svg">
<path d="M0.404297 0.25H3.2093V61.535H22.9293V64H0.404297V0.25Z" fill="#616161"/>
<path d="M48.1092 64.935C44.4826 64.935 41.1109 64.0283 37.9942 62.215C34.8776 60.4017 32.4126 57.965 30.5992 54.905C28.7859 51.7883 27.8792 48.445 27.8792 44.875C27.8792 41.305 28.7859 37.99 30.5992 34.93C32.4126 31.8133 34.8776 29.3483 37.9942 27.535C41.1109 25.7217 44.4826 24.815 48.1092 24.815C51.7926 24.815 55.2776 25.8067 58.5642 27.79C61.8509 29.7167 64.1459 32.2383 65.4492 35.355V25.75H68.1692V64H65.4492V54.48C63.9192 57.6533 61.5392 60.2033 58.3092 62.13C55.1359 64 51.7359 64.935 48.1092 64.935ZM48.2792 62.555C51.3959 62.555 54.2859 61.7617 56.9492 60.175C59.6126 58.5317 61.7092 56.3783 63.2392 53.715C64.8259 50.995 65.6192 48.0483 65.6192 44.875C65.6192 41.7583 64.8259 38.84 63.2392 36.12C61.6526 33.4 59.5276 31.2467 56.8642 29.66C54.2009 28.0167 51.3109 27.195 48.1942 27.195C45.0776 27.195 42.1592 28.0167 39.4392 29.66C36.7759 31.3033 34.6226 33.485 32.9792 36.205C31.3926 38.925 30.5992 41.8433 30.5992 44.96C30.5992 48.0767 31.3926 50.995 32.9792 53.715C34.6226 56.3783 36.8042 58.5317 39.5242 60.175C42.2442 61.7617 45.1626 62.555 48.2792 62.555Z" fill="#616161"/>
<path d="M78.8978 25.75H81.6178V31.53C84.2245 27.0533 88.4178 24.815 94.1978 24.815C96.9745 24.815 99.3828 25.6083 101.423 27.195C103.463 28.725 104.879 31.0483 105.673 34.165C106.409 31.3883 108.024 29.15 110.518 27.45C113.068 25.6933 115.929 24.815 119.103 24.815C123.239 24.815 126.441 26.0333 128.708 28.47C130.974 30.85 132.108 34.25 132.108 38.67V64H129.388V38.67C129.388 35.1 128.453 32.295 126.583 30.255C124.769 28.215 122.361 27.195 119.358 27.195C117.091 27.195 114.994 27.7617 113.068 28.895C111.141 29.9717 109.611 31.445 108.478 33.315C107.344 35.185 106.778 37.2533 106.778 39.52V64H104.058V40.2C104.058 36.12 103.094 32.9467 101.168 30.68C99.2411 28.3567 96.7478 27.195 93.6878 27.195C91.6478 27.195 89.6928 27.705 87.8228 28.725C86.0095 29.745 84.5078 31.1333 83.3178 32.89C82.1845 34.59 81.6178 36.46 81.6178 38.5V64H78.8978V25.75Z" fill="#616161"/>
<path d="M162.874 64.935C159.417 64.935 156.074 64 152.844 62.13C149.67 60.26 147.234 57.795 145.534 54.735V64H142.814V0.25H145.534V35.44C147.064 32.21 149.444 29.6317 152.674 27.705C155.904 25.7783 159.304 24.815 162.874 24.815C166.557 24.815 169.929 25.7217 172.989 27.535C176.105 29.3483 178.571 31.785 180.384 34.845C182.197 37.905 183.104 41.2483 183.104 44.875C183.104 48.5017 182.197 51.845 180.384 54.905C178.571 57.965 176.105 60.4017 172.989 62.215C169.929 64.0283 166.557 64.935 162.874 64.935ZM163.044 62.555C166.16 62.555 169.051 61.7617 171.714 60.175C174.377 58.5317 176.474 56.3783 178.004 53.715C179.59 50.995 180.384 48.0483 180.384 44.875C180.384 41.7583 179.59 38.84 178.004 36.12C176.417 33.4 174.292 31.2467 171.629 29.66C168.965 28.0167 166.075 27.195 162.959 27.195C159.842 27.195 156.924 28.0167 154.204 29.66C151.54 31.3033 149.387 33.485 147.744 36.205C146.157 38.925 145.364 41.8433 145.364 44.96C145.364 48.0767 146.157 50.995 147.744 53.715C149.387 56.3783 151.569 58.5317 154.289 60.175C157.009 61.7617 159.927 62.555 163.044 62.555Z" fill="#616161"/>
<path d="M209.642 64.935C205.959 64.935 202.559 64.0283 199.442 62.215C196.382 60.4017 193.946 57.965 192.132 54.905C190.319 51.845 189.412 48.5017 189.412 44.875C189.412 41.2483 190.319 37.905 192.132 34.845C193.946 31.785 196.382 29.3483 199.442 27.535C202.559 25.7217 205.959 24.815 209.642 24.815C213.212 24.815 216.612 25.7783 219.842 27.705C223.072 29.575 225.452 32.04 226.982 35.1V0.25H229.702V64H226.982V54.735C225.282 57.795 222.817 60.26 219.587 62.13C216.414 64 213.099 64.935 209.642 64.935ZM209.557 62.555C212.674 62.555 215.564 61.7617 218.227 60.175C220.947 58.5317 223.101 56.3783 224.687 53.715C226.331 50.995 227.152 48.0767 227.152 44.96C227.152 41.8433 226.331 38.925 224.687 36.205C223.101 33.485 220.947 31.3033 218.227 29.66C215.564 28.0167 212.674 27.195 209.557 27.195C206.441 27.195 203.551 28.0167 200.887 29.66C198.224 31.2467 196.099 33.4 194.512 36.12C192.926 38.84 192.132 41.7583 192.132 44.875C192.132 48.0483 192.897 50.995 194.427 53.715C196.014 56.3783 198.139 58.5317 200.802 60.175C203.522 61.7617 206.441 62.555 209.557 62.555Z" fill="#616161"/>
<path d="M258.451 64.935C254.824 64.935 251.453 64.0283 248.336 62.215C245.219 60.4017 242.754 57.965 240.941 54.905C239.128 51.7883 238.221 48.445 238.221 44.875C238.221 41.305 239.128 37.99 240.941 34.93C242.754 31.8133 245.219 29.3483 248.336 27.535C251.453 25.7217 254.824 24.815 258.451 24.815C262.134 24.815 265.619 25.8067 268.906 27.79C272.193 29.7167 274.488 32.2383 275.791 35.355V25.75H278.511V64H275.791V54.48C274.261 57.6533 271.881 60.2033 268.651 62.13C265.478 64 262.078 64.935 258.451 64.935ZM258.621 62.555C261.738 62.555 264.628 61.7617 267.291 60.175C269.954 58.5317 272.051 56.3783 273.581 53.715C275.168 50.995 275.961 48.0483 275.961 44.875C275.961 41.7583 275.168 38.84 273.581 36.12C271.994 33.4 269.869 31.2467 267.206 29.66C264.543 28.0167 261.653 27.195 258.536 27.195C255.419 27.195 252.501 28.0167 249.781 29.66C247.118 31.3033 244.964 33.485 243.321 36.205C241.734 38.925 240.941 41.8433 240.941 44.96C240.941 48.0767 241.734 50.995 243.321 53.715C244.964 56.3783 247.146 58.5317 249.866 60.175C252.586 61.7617 255.504 62.555 258.621 62.555Z" fill="#616161"/>
<path d="M309.276 0.25H312.081V61.535H331.801V64H309.276V0.25Z" fill="#616161"/>
<path d="M357.576 62.64C360.523 62.64 363.328 61.875 365.991 60.345C368.655 58.815 370.865 56.7183 372.621 54.055V58.39C370.525 60.7133 368.23 62.4133 365.736 63.49C363.243 64.51 360.41 65.02 357.236 65.02C353.723 65.02 350.408 64.085 347.291 62.215C344.231 60.345 341.766 57.8517 339.896 54.735C338.083 51.6183 337.176 48.3033 337.176 44.79C337.176 40.9933 338.083 37.5933 339.896 34.59C341.71 31.53 344.175 29.15 347.291 27.45C350.465 25.75 353.978 24.9 357.831 24.9C363.725 24.9 368.74 27.2233 372.876 31.87L346.186 58.22C348.056 59.75 349.87 60.8833 351.626 61.62C353.383 62.3 355.366 62.64 357.576 62.64ZM339.896 44.535C339.896 49.2383 341.455 53.2617 344.571 56.605L369.476 31.87C367.606 30.2267 365.793 29.065 364.036 28.385C362.28 27.6483 360.183 27.28 357.746 27.28C354.29 27.28 351.201 28.045 348.481 29.575C345.818 31.0483 343.721 33.0883 342.191 35.695C340.661 38.3017 339.896 41.2483 339.896 44.535Z" fill="#616161"/>
<path d="M381.378 25.75H384.098V34.25C385.345 31.4167 387.47 29.15 390.473 27.45C393.477 25.6933 396.792 24.815 400.418 24.815C405.122 24.815 408.833 26.3167 411.553 29.32C414.33 32.2667 415.718 36.4033 415.718 41.73V64H412.998V41.73C412.998 37.14 411.865 33.57 409.598 31.02C407.388 28.47 404.272 27.195 400.248 27.195C397.302 27.195 394.582 27.875 392.088 29.235C389.652 30.5383 387.697 32.3517 386.223 34.675C384.807 36.9983 384.098 39.6333 384.098 42.58V64H381.378V25.75Z" fill="#616161"/>
<path d="M435.717 64.935C432.997 64.935 430.588 64.4817 428.492 63.575C426.395 62.6117 424.893 61.3933 423.987 59.92V55.415C425.063 57.8517 426.537 59.665 428.407 60.855C430.277 61.9883 432.657 62.555 435.547 62.555C438.323 62.555 440.562 61.705 442.262 60.005C443.962 58.2483 444.812 56.01 444.812 53.29C444.812 50.9667 444.33 49.1817 443.367 47.935C442.403 46.6317 440.845 45.3283 438.692 44.025L435.462 42.155C433.138 40.7383 431.382 39.6333 430.192 38.84C429.058 37.99 428.152 37.055 427.472 36.035C426.792 34.9583 426.452 33.7117 426.452 32.295C426.452 30.0283 427.245 28.215 428.832 26.855C430.418 25.495 432.487 24.815 435.037 24.815C438.153 24.815 440.76 25.5233 442.857 26.94V30.68C441.1 28.3567 438.578 27.195 435.292 27.195C433.478 27.195 432.005 27.6483 430.872 28.555C429.738 29.4617 429.172 30.6233 429.172 32.04C429.172 33.2867 429.512 34.3917 430.192 35.355C430.872 36.2617 431.807 37.1117 432.997 37.905C434.243 38.6983 436.283 39.8883 439.117 41.475C442.007 43.1183 444.132 44.8183 445.492 46.575C446.852 48.275 447.532 50.5133 447.532 53.29C447.532 56.8033 446.37 59.6367 444.047 61.79C441.78 63.8867 439.003 64.935 435.717 64.935Z" fill="#616161"/>
<path d="M220.5 138L312.276 171.792V182.16L220.5 215.824V203.92L286.676 181.136C287.359 180.88 288.596 180.453 290.388 179.856C292.18 179.259 294.015 178.661 295.892 178.064C297.855 177.552 299.348 177.125 300.372 176.784C298.665 176.357 296.916 175.888 295.124 175.376C293.417 174.949 291.839 174.48 290.388 173.968C288.937 173.541 287.7 173.157 286.676 172.816L220.5 149.648V138Z" fill="#414141"/>
<path d="M223 244.5L131.224 210.708V200.34L223 166.676V178.58L156.824 201.364C156.141 201.62 154.904 202.047 153.112 202.644C151.32 203.241 149.485 203.839 147.608 204.436C145.645 204.948 144.152 205.375 143.128 205.716C144.835 206.143 146.584 206.612 148.376 207.124C150.083 207.551 151.661 208.02 153.112 208.532C154.563 208.959 155.8 209.343 156.824 209.684L223 232.852V244.5Z" fill="#414141"/>
</svg>
